<svg id="visual" viewBox="0 0 900 50" width="900" height="50" xmlns="http://www.w3.org/2000/svg" xmlns:xlink="http://www.w3.org/1999/xlink" version="1.1"><rect x="0" y="0" width="900" height="50" fill="#B68CB8"></rect><path d="M0 8L16.7 9.2C33.3 10.3 66.7 12.7 100 13C133.3 13.3 166.7 11.7 200 11.7C233.3 11.7 266.7 13.3 300 13.8C333.3 14.3 366.7 13.7 400 13.2C433.3 12.7 466.7 12.3 500 12.2C533.3 12 566.7 12 600 11.8C633.3 11.7 666.7 11.3 700 11C733.3 10.7 766.7 10.3 800 11C833.3 11.7 866.7 13.3 883.3 14.2L900 15L900 51L883.3 51C866.7 51 833.3 51 800 51C766.7 51 733.3 51 700 51C666.7 51 633.3 51 600 51C566.7 51 533.3 51 500 51C466.7 51 433.3 51 400 51C366.7 51 333.3 51 300 51C266.7 51 233.3 51 200 51C166.7 51 133.3 51 100 51C66.7 51 33.3 51 16.7 51L0 51Z" fill="#c191b5"></path><path d="M0 26L16.7 26.2C33.3 26.3 66.7 26.7 100 26.8C133.3 27 166.7 27 200 26.7C233.3 26.3 266.7 25.7 300 25.5C333.3 25.3 366.7 25.7 400 25.7C433.3 25.7 466.7 25.3 500 25.2C533.3 25 566.7 25 600 24.7C633.3 24.3 666.7 23.7 700 22.8C733.3 22 766.7 21 800 21.7C833.3 22.3 866.7 24.7 883.3 25.8L900 27L900 51L883.3 51C866.7 51 833.3 51 800 51C766.7 51 733.3 51 700 51C666.7 51 633.3 51 600 51C566.7 51 533.3 51 500 51C466.7 51 433.3 51 400 51C366.7 51 333.3 51 300 51C266.7 51 233.3 51 200 51C166.7 51 133.3 51 100 51C66.7 51 33.3 51 16.7 51L0 51Z" fill="#e097b1"></path><path d="M0 34L16.7 34.8C33.3 35.7 66.7 37.3 100 38.3C133.3 39.3 166.7 39.7 200 38.7C233.3 37.7 266.7 35.3 300 34.2C333.3 33 366.7 33 400 33.7C433.3 34.3 466.7 35.7 500 36.2C533.3 36.7 566.7 36.3 600 36.8C633.3 37.3 666.7 38.7 700 38.7C733.3 38.7 766.7 37.3 800 36.2C833.3 35 866.7 34 883.3 33.5L900 33L900 51L883.3 51C866.7 51 833.3 51 800 51C766.7 51 733.3 51 700 51C666.7 51 633.3 51 600 51C566.7 51 533.3 51 500 51C466.7 51 433.3 51 400 51C366.7 51 333.3 51 300 51C266.7 51 233.3 51 200 51C166.7 51 133.3 51 100 51C66.7 51 33.3 51 16.7 51L0 51Z" fill="#f99fa6"></path></svg>