<svg id="visual" viewBox="0 0 900 50" width="900" height="50" xmlns="http://www.w3.org/2000/svg" xmlns:xlink="http://www.w3.org/1999/xlink" version="1.1"><rect x="0" y="0" width="900" height="50" fill="#36293D"></rect><path d="M0 14L16.7 13C33.3 12 66.7 10 100 9.5C133.3 9 166.7 10 200 10.8C233.3 11.7 266.7 12.3 300 12.5C333.3 12.7 366.7 12.3 400 12.3C433.3 12.3 466.7 12.7 500 12.8C533.3 13 566.7 13 600 12.3C633.3 11.7 666.7 10.3 700 10.2C733.3 10 766.7 11 800 11.8C833.3 12.7 866.7 13.3 883.3 13.7L900 14L900 51L883.3 51C866.7 51 833.3 51 800 51C766.7 51 733.3 51 700 51C666.7 51 633.3 51 600 51C566.7 51 533.3 51 500 51C466.7 51 433.3 51 400 51C366.7 51 333.3 51 300 51C266.7 51 233.3 51 200 51C166.7 51 133.3 51 100 51C66.7 51 33.3 51 16.7 51L0 51Z" fill="#604c6b"></path><path d="M0 22L16.7 22.5C33.3 23 66.7 24 100 24.3C133.3 24.7 166.7 24.3 200 24.5C233.3 24.7 266.7 25.3 300 25.3C333.3 25.3 366.7 24.7 400 24.2C433.3 23.7 466.7 23.3 500 23.5C533.3 23.7 566.7 24.3 600 24.5C633.3 24.7 666.7 24.3 700 23.7C733.3 23 766.7 22 800 21.5C833.3 21 866.7 21 883.3 21L900 21L900 51L883.3 51C866.7 51 833.3 51 800 51C766.7 51 733.3 51 700 51C666.7 51 633.3 51 600 51C566.7 51 533.3 51 500 51C466.7 51 433.3 51 400 51C366.7 51 333.3 51 300 51C266.7 51 233.3 51 200 51C166.7 51 133.3 51 100 51C66.7 51 33.3 51 16.7 51L0 51Z" fill="#896b91"></path><path d="M0 40L16.7 39C33.3 38 66.7 36 100 35.7C133.3 35.3 166.7 36.7 200 36.5C233.3 36.3 266.7 34.7 300 35C333.3 35.3 366.7 37.7 400 38C433.3 38.3 466.7 36.7 500 36.2C533.3 35.7 566.7 36.3 600 36.5C633.3 36.7 666.7 36.3 700 36C733.3 35.7 766.7 35.3 800 35.3C833.3 35.3 866.7 35.7 883.3 35.8L900 36L900 51L883.3 51C866.7 51 833.3 51 800 51C766.7 51 733.3 51 700 51C666.7 51 633.3 51 600 51C566.7 51 533.3 51 500 51C466.7 51 433.3 51 400 51C366.7 51 333.3 51 300 51C266.7 51 233.3 51 200 51C166.7 51 133.3 51 100 51C66.7 51 33.3 51 16.7 51L0 51Z" fill="#b68cb8"></path></svg>