<svg id="visual" viewBox="0 0 900 50" width="900" height="50" xmlns="http://www.w3.org/2000/svg" xmlns:xlink="http://www.w3.org/1999/xlink" version="1.1"><rect x="0" y="0" width="900" height="50" fill="#F99FA6"></rect><path d="M0 8L16.7 9C33.3 10 66.7 12 100 12.8C133.3 13.7 166.7 13.3 200 13C233.3 12.7 266.7 12.3 300 12.3C333.3 12.3 366.7 12.7 400 13C433.3 13.3 466.7 13.7 500 13.8C533.3 14 566.7 14 600 13.5C633.3 13 666.7 12 700 12C733.3 12 766.7 13 800 13.3C833.3 13.7 866.7 13.3 883.3 13.2L900 13L900 51L883.3 51C866.7 51 833.3 51 800 51C766.7 51 733.3 51 700 51C666.7 51 633.3 51 600 51C566.7 51 533.3 51 500 51C466.7 51 433.3 51 400 51C366.7 51 333.3 51 300 51C266.7 51 233.3 51 200 51C166.7 51 133.3 51 100 51C66.7 51 33.3 51 16.7 51L0 51Z" fill="#d790a2"></path><path d="M0 27L16.7 27C33.3 27 66.7 27 100 26.7C133.3 26.3 166.7 25.7 200 24.8C233.3 24 266.7 23 300 23.2C333.3 23.3 366.7 24.7 400 25.3C433.3 26 466.7 26 500 25C533.3 24 566.7 22 600 22.2C633.3 22.3 666.7 24.7 700 25C733.3 25.3 766.7 23.7 800 23.7C833.3 23.7 866.7 25.3 883.3 26.2L900 27L900 51L883.3 51C866.7 51 833.3 51 800 51C766.7 51 733.3 51 700 51C666.7 51 633.3 51 600 51C566.7 51 533.3 51 500 51C466.7 51 433.3 51 400 51C366.7 51 333.3 51 300 51C266.7 51 233.3 51 200 51C166.7 51 133.3 51 100 51C66.7 51 33.3 51 16.7 51L0 51Z" fill="#825a73"></path><path d="M0 34L16.7 33.8C33.3 33.7 66.7 33.3 100 33.3C133.3 33.3 166.7 33.7 200 33.8C233.3 34 266.7 34 300 35C333.3 36 366.7 38 400 38.8C433.3 39.7 466.7 39.3 500 38.5C533.3 37.7 566.7 36.3 600 36.5C633.3 36.7 666.7 38.3 700 39C733.3 39.7 766.7 39.3 800 38.3C833.3 37.3 866.7 35.7 883.3 34.8L900 34L900 51L883.3 51C866.7 51 833.3 51 800 51C766.7 51 733.3 51 700 51C666.7 51 633.3 51 600 51C566.7 51 533.3 51 500 51C466.7 51 433.3 51 400 51C366.7 51 333.3 51 300 51C266.7 51 233.3 51 200 51C166.7 51 133.3 51 100 51C66.7 51 33.3 51 16.7 51L0 51Z" fill="#36293d"></path></svg>